
        <svg xmlns="http://www.w3.org/2000/svg" xmlns:xlink="http://www.w3.org/1999/xlink" version="1.1" width="3260.8695652173915" 
        height="3236.6568673648476" viewBox="0 0 3260.8695652173915 3236.6568673648476">
			<rect fill="#ffffff" width="3260.8695652173915" height="3236.6568673648476"/>
			<g transform="scale(13.043478260869565) translate(10, 10)">
				<defs id="SvgjsDefs3023"></defs><g id="SvgjsG3024" featureKey="rootContainer" transform="matrix(2.25681840929523,0,0,2.25681840929523,0.10030305965650542,-0.02067868201089216)" fill="#0060d6"><path xmlns="http://www.w3.org/2000/svg" d="M101.8 83.6l-.2-29.5c0-6 .1-12.2-.2-18-.1-2.5-.1-5.1-.1-7.8 0-4.7-.1-9-.4-13.2l-.2-4.2c-.1-2.7-.2-5.3-.3-8V1h-7.3L77.2.7H66.6a25.7 25.7 0 0 0-5.5.6l-.6.3H49.8c-.1-.2-.8-.3-2.2-.4L34.3.3a130.5 130.5 0 0 0-18.8.1C12.3.6 9 .8 4.6.9L1.5.5H.4v1.2c-.2 2-.3 4.3-.3 7s0 6.8-.1 10.2 0 5.3 0 8a42.2 42.2 0 0 0 .4 6.9 20.3 20.3 0 0 1 .3 2.9c.1 3.8.4 4.8.8 5.5v17.6l-.2.5c.1 4-.1 7.6-.2 11.3-.3 7.4-.4 15-.1 22.5a25.5 25.5 0 0 0 .5 4.9v.8H6l-.2.2h5.4a51 51 0 0 1 8.6.4 21.1 21.1 0 0 0 3.8.3c6.6-.1 12.7.1 18.9.4h6.7l13.9-.3c6.1-.1 11.9-.5 18.3-.5h9.7l3.5-.2 2.8-.5h2.3v-1c.3 1.6.6 1.4 1-.8.1-.6.2-1.3.3-2s.3-2.6.5-3.4a51.3 51.3 0 0 0 .3-8.8z"></path></g><g id="SvgjsG3025" featureKey="symbolFeature-0" transform="matrix(1.0704020708680835,0,0,1.0704020708680835,67,35)" fill="#ffffff"><path xmlns="http://www.w3.org/2000/svg" d="M15.598,29C15.598,29,0,48.229,0,58.058c0,9.83,7.05,17.949,15.598,17.949s15.599-8.119,15.599-17.949  C31.197,48.229,15.598,29,15.598,29z M19.188,72.845c0,0,5.792-5.792,9-14.167C28.188,58.678,29.188,67.512,19.188,72.845z"></path><path xmlns="http://www.w3.org/2000/svg" d="M64.511,20.238C58.524,10.968,52.546,3.156,50.07,0c-2.476,3.156-8.457,10.967-14.444,20.238  c-3.594,5.525-7.153,11.603-9.957,17.452c4.228,6.489,8.584,14.578,8.584,20.369c0,7.474-3.494,14.03-8.729,17.755  c1.046,1.736,2.214,3.367,3.506,4.854c5.468,6.286,12.914,10.139,21.037,10.139c8.118,0,15.564-3.853,21.032-10.139  c5.465-6.284,8.895-14.983,8.892-24.527C80.06,46.968,72.342,32.284,64.511,20.238z M59.646,83.952c0,0,9.695-9.695,15.065-23.714  C74.711,60.238,76.385,75.025,59.646,83.952z"></path><path xmlns="http://www.w3.org/2000/svg" d="M78.221,38.502l0.337,0.738c0.212,0.48,0.417,0.958,0.619,1.436c1.362-1.498,5.14-5.98,7.429-11.956  c0,0,0.837,7.432-7.34,12.162c0.243,0.58,0.478,1.157,0.7,1.731c5.594-2.13,9.64-8.119,9.64-15.169  c0-8.372-12.398-23.753-12.929-24.403l-1.188-1.464l-1.187,1.464c-0.329,0.403-5.213,6.468-8.88,13.013  c0.551,0.829,1.104,1.668,1.656,2.525C71.132,24.893,75.198,31.815,78.221,38.502z"></path></g><g id="SvgjsG3026" featureKey="nameFeature-0" transform="matrix(1.3879220539111654,0,0,1.3879220539111654,12.224156223084073,138.45388573065935)" fill="#ffffff"><path d="M6.72 11.16 c0 0.56 0.12 19.52 0.12 21.84 c0 0.52 -0.12 1.04 -0.4 1.48 c-0.2 0.4 -0.6 0.88 -1.12 0.88 c-0.56 0 -1.16 -0.2 -1.72 -0.4 c-0.28 -0.16 -0.96 -0.64 -1.04 0 c-0.12 1.04 -0.44 3.68 -0.56 4.48 c0 0.2 0.52 0.28 0.6 0.32 c1.04 0.2 2.16 0.28 3.2 0.28 c1.08 0.04 2.16 -0.12 3.12 -0.68 c1.64 -0.96 2.92 -2.8 2.92 -4.8 l0.08 -22.24 c0 -0.24 0.08 -1.52 -0.08 -1.92 c-0.24 -0.64 -1.12 -0.48 -1.64 -0.48 c-0.88 0 -1.76 -0.08 -2.6 0 c-0.8 0.08 -0.88 0.32 -0.88 1.24 z M20.342 39.68 c0.12 0.04 0.48 0.04 0.84 0.04 c0.8 0 1.04 -2.88 1.12 -3.48 c0.04 -0.48 0.16 -0.52 0.56 -0.6 c2 -0.24 3 -0.08 5 -0.04 c0.44 0 0.68 0.2 0.8 0.56 l0.28 0.92 c0.24 0.68 0.44 1.52 0.68 2.2 c0.16 0.48 0.2 0.44 0.68 0.44 c0.64 0 2.96 0 3.64 -0.04 c0.92 0 0.28 -1.88 0.16 -2.2 c-0.36 -1.12 -0.44 -2.28 -0.8 -3.4 c-0.16 -0.48 -4.72 -22.12 -4.92 -23.32 c-0.28 -0.72 -0.04 -0.76 -0.68 -0.76 c-1.36 0 -2.8 0.08 -4.2 0 c-0.56 0 -0.52 0.16 -0.6 0.76 c-0.08 0.56 -1.52 6.92 -2.08 9.56 c-0.72 3.32 -1.36 6.52 -2.16 9.8 c-0.28 1.16 -2.2 9.52 -1.96 9.56 c0.12 0.08 0.32 0.04 0.48 0.04 c1 0 1.92 0 3.16 -0.04 z M25.582 30.6 l-0.84 0 c-1.12 0 -1.16 0 -0.88 -1.16 c0.2 -0.88 1.28 -5.64 1.52 -6.8 c0.04 -0.08 0.12 -0.16 0.16 -0.16 c0.08 0 0.16 0.08 0.2 0.12 c0.16 0.48 0.32 1.68 0.48 2.16 c0.36 1.52 0.6 2.8 0.96 4.44 c0.36 1.44 0.2 1.44 -0.52 1.44 c-0.36 0 -0.72 -0.04 -1.08 -0.04 z M39.164 13.920000000000002 c-0.04 2.48 0.2 20.6 0.16 21.92 c0 1.24 0 2.48 0.04 3.72 c0 0.2 0.12 0.4 0.32 0.4 c2.8 0.12 5.56 -0.12 8.36 -0.08 c0.92 0.04 1.84 0 2.72 0 c0.88 -0.04 0.96 -0.4 0.92 -1.12 c-0.04 -1.12 -0.04 -2.12 -0.04 -3.2 c-0.04 -0.56 -0.36 -0.76 -0.84 -0.76 c-1.64 0.04 -3.28 -0.04 -4.92 0.04 c-0.28 0.04 -0.56 0.04 -0.84 0.04 c-0.48 -0.04 -0.6 -0.16 -0.64 -0.68 l0 -0.6 c-0.12 -3.32 0.12 -6.76 0.12 -10.08 c-0.04 -2.8 0 -5.32 -0.04 -7.8 c0 -1.08 0 -2.16 -0.04 -3.2 c-0.04 -0.64 0 -1.32 -0.16 -1.96 c-0.08 -0.24 -0.2 -0.56 -0.48 -0.56 l-3.76 0 c-0.64 0 -0.84 0.44 -0.88 1.08 l0 2.84 z M64.586 9.8 c-0.76 0.04 -1.52 0.16 -2.28 0.4 c-1.64 0.56 -3.12 1.68 -4.12 3.12 c-0.88 1.32 -1.24 2.88 -1.36 4.44 c-0.08 1.2 0.04 2.44 0.6 3.52 c0.6 1.16 1.64 2.16 2.52 3.12 c0.8 0.84 1.6 1.68 2.48 2.44 c0.8 0.76 1.72 1.36 2.52 2.16 c1.16 1.16 1.6 3.8 0.76 5.24 c-1 1.6 -3.36 1.84 -4.92 1.32 c-0.8 -0.28 -1.52 -0.88 -2.2 -1.36 c-0.4 -0.28 -0.88 -0.4 -1.16 0.08 c-0.16 0.24 -0.24 0.52 -0.32 0.76 c-0.28 1 -0.64 1.92 -0.68 3 c-0.04 1.24 2.32 1.6 3.2 1.8 c3.92 0.92 8.64 0.2 10.68 -3.68 c0.4 -0.8 0.68 -1.64 0.84 -2.52 c0.04 -0.32 0.08 -0.6 0.08 -0.92 c0.16 -2.56 -0.88 -4.72 -2.44 -6.64 c-1.68 -2.08 -3.8 -3.52 -5.76 -5.32 c-1.2 -1.12 -1.64 -2.88 -1.28 -4.48 c0.36 -1.72 2.32 -2.16 3.8 -1.72 c0.44 0.12 0.8 0.32 1.2 0.56 c0.24 0.12 0.48 0.28 0.8 0.28 c0.56 0.04 0.64 -0.4 0.76 -0.84 c0.28 -1 0.76 -1.8 0.96 -2.76 c0.2 -1.08 -0.68 -1.28 -1.56 -1.56 c-1.04 -0.28 -2.04 -0.48 -3.12 -0.44 z M76.00800000000001 31.8 l-0.04 0 c0 1 -0.04 2.04 0 3.08 c0.04 1.28 0.12 2.56 0.2 3.84 c0 0.44 0.12 0.56 0.52 0.64 c0.84 0.2 1.64 0.24 2.48 0.24 c2.16 -0.08 4.32 0.08 6.48 0 c0.88 -0.04 1.28 0.04 2.16 -0.12 c0.8 -0.16 1.08 -0.6 1.08 -1.8 c-0.08 -0.76 -0.04 -1.08 -0.04 -2 c0 -1.32 -0.92 -1.76 -1.72 -1.72 c-0.56 0.04 -3.24 -0.04 -4.32 -0.04 c-1.8 0.04 -1.52 0.28 -1.52 -1.6 c0 -1.52 0.04 -3.48 0.04 -5.04 c0 -0.84 0.08 -1.12 0.88 -1.12 l5 0 c0.8 0.12 1.36 -0.44 1.36 -1.28 s0.08 -0.88 0.08 -1.72 l-0.12 -1.2 c-0.08 -0.68 -0.32 -0.92 -1 -0.92 c-0.44 0 -0.88 0.04 -1.32 0.08 c-1.72 0.12 -2.52 -0.12 -4.2 0 c-0.56 0 -0.64 -0.08 -0.68 -0.6 c-0.16 -1.56 0 -3.28 0.16 -4.84 c0.04 -0.64 0.2 -0.76 0.8 -0.8 l5.64 -0.04 c0.76 -0.08 1 -0.04 0.96 -0.8 c-0.08 -1.16 0.04 -2.36 -0.08 -3.52 c-0.08 -0.64 -0.28 -0.76 -1 -0.76 c-1.2 0.04 -1.48 0.04 -2.68 0.12 c-1.2 0.04 -6 0.04 -7.16 0.04 c-1.68 0 -1.8 -0.12 -1.84 1.92 c-0.08 1.6 -0.04 3.24 -0.04 4.88 c0 2.8 -0.16 12.84 -0.08 15.08 z M95.27000000000001 9.96 c-0.04 0 -0.36 -0.04 -0.68 -0.04 c-0.56 0 -0.84 0.2 -0.92 0.72 c-0.04 0.28 -0.04 0.6 0.04 0.84 c0.32 1.24 6.52 26.88 6.84 28 c0.12 0.48 0.16 0.48 0.64 0.48 l3.24 0 l0.24 0 c0.52 0 0.56 -0.72 0.68 -1.4 c0.8 -4.12 1.8 -8.2 2.76 -12.16 c0.04 -0.24 0.12 -0.48 0.2 -0.68 c0.04 -0.08 0.12 -0.12 0.16 -0.12 c0.08 0 0.16 0.04 0.2 0.12 c0.2 0.48 2.6 11.84 3.08 13.8 c0.08 0.24 0.2 0.44 0.52 0.44 l3.2 0 c0.6 0 1 -0.32 1.12 -0.92 c0.52 -2.64 1.2 -5.6 1.84 -8.2 c0.8 -3.2 1.64 -6.36 2.48 -9.56 c0.64 -2.56 1.32 -5.36 2.12 -7.88 c0.28 -0.84 1.32 -3.36 -0.44 -3.36 c-0.88 0 -1.64 -0.08 -2.52 -0.04 c-0.28 0 -0.56 0 -0.84 0.04 c-0.44 0 -0.76 0.24 -0.92 0.64 c-0.12 0.4 -0.32 0.84 -0.44 1.24 c-0.6 2.56 -1.16 5.48 -1.88 8 c-0.52 1.88 -1.08 3.72 -1.52 5.6 c0 0.04 -0.16 0.64 -0.32 0.64 c-0.28 0 -0.36 -0.44 -0.44 -0.84 c-0.04 -0.16 -2.04 -11.64 -2.32 -13.88 c-0.08 -0.88 -0.36 -1.4 -1.28 -1.44 l-0.48 0 c-1.04 0.08 -1.6 -0.04 -2.64 0.04 c-0.84 0.04 -0.96 0.12 -1.16 0.88 c-0.04 0.16 -0.04 0.36 -0.08 0.56 c-0.32 1.76 -2.4 13.12 -2.68 14.48 c0 0.08 -0.04 0.24 -0.16 0.24 c-0.16 0 -0.2 -0.2 -0.24 -0.28 c-0.04 -0.16 -3.52 -14.84 -3.64 -15.2 c-0.16 -0.48 -0.52 -0.76 -1.08 -0.76 c-0.88 0.04 -1.56 0 -2.68 0 z M132.012 39.68 c0.12 0.04 0.48 0.04 0.84 0.04 c0.8 0 1.04 -2.88 1.12 -3.48 c0.04 -0.48 0.16 -0.52 0.56 -0.6 c2 -0.24 3 -0.08 5 -0.04 c0.44 0 0.68 0.2 0.8 0.56 l0.28 0.92 c0.24 0.68 0.44 1.52 0.68 2.2 c0.16 0.48 0.2 0.44 0.68 0.44 c0.64 0 2.96 0 3.64 -0.04 c0.92 0 0.28 -1.88 0.16 -2.2 c-0.36 -1.12 -0.44 -2.28 -0.8 -3.4 c-0.16 -0.48 -4.72 -22.12 -4.92 -23.32 c-0.28 -0.72 -0.04 -0.76 -0.68 -0.76 c-1.36 0 -2.8 0.08 -4.2 0 c-0.56 0 -0.52 0.16 -0.6 0.76 c-0.08 0.56 -1.52 6.92 -2.08 9.56 c-0.72 3.32 -1.36 6.52 -2.16 9.8 c-0.28 1.16 -2.2 9.52 -1.96 9.56 c0.12 0.08 0.32 0.04 0.48 0.04 c1 0 1.92 0 3.16 -0.04 z M137.252 30.6 l-0.84 0 c-1.12 0 -1.16 0 -0.88 -1.16 c0.2 -0.88 1.28 -5.64 1.52 -6.8 c0.04 -0.08 0.12 -0.16 0.16 -0.16 c0.08 0 0.16 0.08 0.2 0.12 c0.16 0.48 0.32 1.68 0.48 2.16 c0.36 1.52 0.6 2.8 0.96 4.44 c0.36 1.44 0.2 1.44 -0.52 1.44 c-0.36 0 -0.72 -0.04 -1.08 -0.04 z"></path></g>
			</g>
		</svg>
	